<svg xmlns="http://www.w3.org/2000/svg" width="35.683" height="32.868" viewBox="0 0 35.683 32.868">
  <g id="Grupo_48" data-name="Grupo 48" transform="translate(-286 -307.696)">
    <g id="Grupo_46" data-name="Grupo 46" transform="translate(286.615 334.224)">
      <path id="Retângulo_3" data-name="Retângulo 3" d="M.955,0H33.5a.955.955,0,0,1,.955.955v0A5.385,5.385,0,0,1,29.068,6.34H5.385A5.385,5.385,0,0,1,0,.955v0A.955.955,0,0,1,.955,0Z" transform="translate(0 0)" fill="#e4a330"/>
      <path id="Caminho_39" data-name="Caminho 39" d="M538.977,719.752v-2.6a.565.565,0,0,0-.563-.563h-1.768c-4.066,3.181-11.269,5.071-17.618,6.34H535.8A3.183,3.183,0,0,0,538.977,719.752Z" transform="translate(-504.525 -716.586)" fill="#e1972f"/>
    </g>
    <path id="Retângulo_4" data-name="Retângulo 4" d="M1.245,0h30.2a1.245,1.245,0,0,1,1.245,1.245v0a1.245,1.245,0,0,1-1.245,1.245H1.245A1.245,1.245,0,0,1,0,1.245v0A1.245,1.245,0,0,1,1.245,0Z" transform="translate(287.497 326.951)" fill="#c72b2c"/>
    <path id="Caminho_40" data-name="Caminho 40" d="M734.183,652.172h3.025a2.021,2.021,0,0,0,2.015-2.015V649.4a2.017,2.017,0,0,0-.941-1.7C737.654,649.775,735.63,651.307,734.183,652.172Z" transform="translate(-419.106 -317.948)" fill="#7c4226"/>
    <path id="Caminho_41" data-name="Caminho 41" d="M341.125,529.147H310.037c-.6-.436-.961-.8-.961-1.235v-3.278a.8.8,0,0,1,.8-.8h31.089a.8.8,0,0,1,.8.8v3.278C341.764,528.352,341.4,528.712,341.125,529.147Z" transform="translate(-21.579 -202.115)" fill="#a35f30"/>
    <path id="Caminho_42" data-name="Caminho 42" d="M321.548,511.364l-1.4-2.779H287.535l-1.4,2.779c-.718,1.425,1.625,1.759,2.377,1.3.307-.189.539-.491.837-.691a2.289,2.289,0,0,1,2.87.467s2.7,2.895,5.215.228a2.373,2.373,0,0,1,2.991-.764c1.025.547,1.8,1.62,2.892,2.024a2.246,2.246,0,0,0,2.2-.485c.419-.351.64-.9,1.1-1.19a2.786,2.786,0,0,1,3.63.416c2.511,2.667,5.215-.228,5.215-.228a2.289,2.289,0,0,1,2.87-.467c.3.2.53.5.837.691C319.923,513.124,322.266,512.789,321.548,511.364Z" transform="translate(0 -187.856)" fill="#4d713d"/>
    <path id="Caminho_43" data-name="Caminho 43" d="M299.8,321.213h0c0-6.365,7.313-13.517,16.617-13.517h0c9.3,0,17.218,7.151,17.218,13.517H299.8Z" transform="translate(-12.909 0)" fill="#e4a330"/>
    <path id="Caminho_44" data-name="Caminho 44" d="M561.243,358.217c-2.02,5.347-6.664,8.473-10.64,10.239h17.543C568.07,364.361,564.7,360.1,561.243,358.217Z" transform="translate(-247.436 -47.243)" fill="#e1972f"/>
    <g id="Grupo_47" data-name="Grupo 47" transform="translate(296.463 309.961)">
      <path id="Caminho_45" data-name="Caminho 45" d="M448.3,364.527c-.338.4-.76.6-.943.451s-.056-.6.282-1.006.76-.6.943-.451S448.638,364.125,448.3,364.527Z" transform="translate(-447.274 -362.116)" fill="#fff"/>
      <path id="Caminho_46" data-name="Caminho 46" d="M635.7,367.146c-.455.263-.921.309-1.04.1s.154-.587.609-.85.921-.309,1.04-.1S636.153,366.883,635.7,367.146Z" transform="translate(-622.474 -364.639)" fill="#fff"/>
      <path id="Caminho_47" data-name="Caminho 47" d="M545.979,365.024c-.109.514-.387.891-.62.841s-.333-.507-.224-1.021.387-.891.62-.841S546.089,364.509,545.979,365.024Z" transform="translate(-538.745 -362.611)" fill="#fff"/>
      <path id="Caminho_48" data-name="Caminho 48" d="M500.214,343.1c.347.395.484.842.3,1s-.605-.035-.953-.43-.484-.842-.3-1S499.866,342.7,500.214,343.1Z" transform="translate(-495.815 -342.612)" fill="#fff"/>
      <path id="Caminho_49" data-name="Caminho 49" d="M591.2,350.028c.489.194.813.531.726.752s-.555.244-1.044.049-.813-.531-.726-.752S590.712,349.834,591.2,350.028Z" transform="translate(-580.874 -349.423)" fill="#fff"/>
    </g>
    <path id="Caminho_50" data-name="Caminho 50" d="M401.335,607.921l8.564,2.435h5.3S410.05,608.014,401.335,607.921Z" transform="translate(-107.852 -280.747)" fill="#ad262b"/>
    <rect id="Retângulo_5" data-name="Retângulo 5" width="33.176" height="4.784" rx="2.392" transform="translate(287.254 329.44)" fill="#844d29"/>
    <path id="Caminho_51" data-name="Caminho 51" d="M523.667,642.853s8.192,2.384,10.654,4.226l4.457-4.159Z" transform="translate(-222.248 -313.413)" fill="#7c4226"/>
    <path id="Caminho_52" data-name="Caminho 52" d="M401.777,611.035l5.1-5.29-24.8-.011S393.361,606.515,401.777,611.035Z" transform="translate(-89.837 -278.702)" fill="#eec131"/>
    <path id="Caminho_53" data-name="Caminho 53" d="M314.617,341.534a15.551,15.551,0,0,1,12.2-11.055S319.2,334.743,314.617,341.534Z" transform="translate(-26.76 -21.305)" fill="#ebba63"/>
  </g>
</svg>
