<svg xmlns="http://www.w3.org/2000/svg" width="35.683" height="50.518" viewBox="0 0 35.683 50.518">
  <g id="Grupo_44" data-name="Grupo 44" transform="translate(-278.466 -161)">
    <g id="Grupo_1" data-name="Grupo 1" transform="translate(279.527 193.931)">
      <path id="Caminho_1" data-name="Caminho 1" d="M327.746,682.49,295.893,686.2a.7.7,0,0,0-.615.777l.133,1.139a.7.7,0,0,0,.777.615l31.853-3.715a.7.7,0,0,0,.615-.777l-.133-1.139A.7.7,0,0,0,327.746,682.49Z" transform="translate(-295.273 -682.485)" fill="#c9272a"/>
    </g>
    <g id="Grupo_2" data-name="Grupo 2" transform="translate(295.477 194.465)">
      <path id="Caminho_2" data-name="Caminho 2" d="M547.847,692.343l7.174,1.73,4.615-.538,1.29-2.589Z" transform="translate(-547.847 -690.945)" fill="#b52326"/>
    </g>
    <g id="Grupo_3" data-name="Grupo 3" transform="translate(280.515 190.047)">
      <path id="Caminho_3" data-name="Caminho 3" d="M340.4,623.919s-11.835-2.94-11.985-2.94-17.488,1.131-17.488,1.131l4.052,1.932s11.565.738,20.207,5.321l5.163-5.416Z" transform="translate(-310.924 -620.979)" fill="#fcc500"/>
    </g>
    <g id="Grupo_6" data-name="Grupo 6" transform="translate(278.858 204.86)">
      <g id="Grupo_4" data-name="Grupo 4" transform="translate(0 0)">
        <path id="Caminho_4" data-name="Caminho 4" d="M316.73,862.063l-28.777.153a3.259,3.259,0,0,1-3.267-3.232l-.014-2.666a.578.578,0,0,1,.573-.579l34.124-.181a.578.578,0,0,1,.579.573l.014,2.665A3.259,3.259,0,0,1,316.73,862.063Z" transform="translate(-284.672 -855.558)" fill="#f5a700"/>
      </g>
      <g id="Grupo_5" data-name="Grupo 5" transform="translate(14.881 0)">
        <path id="Caminho_5" data-name="Caminho 5" d="M540.743,858.8l-.014-2.665a.578.578,0,0,0-.579-.573l-1.81.01c-4.146,3.279-11.511,5.253-18.005,6.587l17.177-.091A3.259,3.259,0,0,0,540.743,858.8Z" transform="translate(-520.334 -855.558)" fill="#e90"/>
      </g>
    </g>
    <g id="Grupo_7" data-name="Grupo 7" transform="translate(279.488 199.968)">
      <path id="Caminho_6" data-name="Caminho 6" d="M327.49,783l-31.654.168a1.161,1.161,0,0,1-1.164-1.151l-.014-2.583a1.161,1.161,0,0,1,1.151-1.164l31.655-.168a1.161,1.161,0,0,1,1.164,1.151l.014,2.583A1.161,1.161,0,0,1,327.49,783Z" transform="translate(-294.658 -778.098)" fill="#844c27"/>
    </g>
    <g id="Grupo_8" data-name="Grupo 8" transform="translate(280.515 190.047)">
      <path id="Caminho_7" data-name="Caminho 7" d="M340.4,623.919s-11.835-2.94-11.985-2.94-17.488,1.131-17.488,1.131l4.052,1.932s11.565.738,20.207,5.321l5.163-5.416Z" transform="translate(-310.924 -620.979)" fill="#fcc500"/>
    </g>
    <g id="Grupo_9" data-name="Grupo 9" transform="translate(280.515 190.047)">
      <path id="Caminho_8" data-name="Caminho 8" d="M310.924,622.11l26.006,2.638,3.467-.829s-11.835-2.94-11.985-2.94S310.924,622.11,310.924,622.11Z" transform="translate(-310.924 -620.979)" fill="#edb900"/>
    </g>
    <g id="Grupo_10" data-name="Grupo 10" transform="translate(279.136 184.371)">
      <path id="Caminho_9" data-name="Caminho 9" d="M321.837,537.626l-31.814-1.078c-.6-.467-.955-.848-.94-1.3l.114-3.355a.821.821,0,0,1,.846-.791l31.814,1.078a.822.822,0,0,1,.791.846l-.114,3.355C322.518,536.834,322.138,537.19,321.837,537.626Z" transform="translate(-289.082 -531.105)" fill="#a45e2a"/>
    </g>
    <g id="Grupo_11" data-name="Grupo 11" transform="translate(282.092 184.439)">
      <path id="Caminho_10" data-name="Caminho 10" d="M366.456,535.376l.045-1.336a.822.822,0,0,0-.791-.846l-29.819-1.011,30.565,3.193Z" transform="translate(-335.891 -532.183)" fill="#915325"/>
    </g>
    <g id="Grupo_12" data-name="Grupo 12" transform="translate(278.466 176.399)">
      <path id="Caminho_11" data-name="Caminho 11" d="M313.418,408.33l-.772-1.141c-.662-.978-1.024-1.951-2.265-2.224a8.364,8.364,0,0,0-2.938.039,49.011,49.011,0,0,0-6.971,1.752,24.369,24.369,0,0,1-2.607.706c-2.594.468-9.548.224-14.137.644-2.705.248-3.74,1.127-4.134,1.807l-.026,0-.048.136a1.776,1.776,0,0,0-.129.368l-.848,2.411c-.526,1.494,1.824,1.526,2.506.974.279-.226.468-.552.737-.786a2.273,2.273,0,0,1,2.886.1s3.031,2.507,5.165-.439a2.357,2.357,0,0,1,2.849-1.133c1.079.409,1.981,1.366,3.105,1.626a2.231,2.231,0,0,0,2.109-.758c.368-.4.516-.963.93-1.312a2.767,2.767,0,0,1,3.628-.052c2.812,2.307,5.107-.887,5.107-.887a2.273,2.273,0,0,1,2.767-.825c.319.159.585.426.912.574C312.041,410.269,314.306,409.642,313.418,408.33Z" transform="translate(-278.466 -404.849)" fill="#4c7025"/>
    </g>
    <g id="Grupo_42" data-name="Grupo 42" transform="translate(278.708 161)">
      <g id="Grupo_39" data-name="Grupo 39" transform="translate(0 0)">
        <g id="Grupo_13" data-name="Grupo 13">
          <path id="Caminho_12" data-name="Caminho 12" d="M315.84,175.01a14.316,14.316,0,0,0-2.693-6.476h0q-.13-.161-.266-.318l-.012-.014q-.131-.151-.267-.3l-.017-.018q-.135-.145-.274-.285l-.017-.017q-.14-.14-.285-.276l-.015-.014q-.147-.137-.3-.269l-.011-.01q-.155-.134-.314-.262l-.006-.005q-.162-.13-.329-.253l0,0q-.168-.125-.342-.243h0c-.047-.032-.093-.065-.141-.1a10.344,10.344,0,0,0-2.675-1.208c-1.4-.435-2.866-.693-4.285-1.174-1.744-.592-3.323-1.546-5.044-2.162a10.852,10.852,0,0,0-4.385-.584,14.642,14.642,0,0,0-11.21,7.1q-.266.461-.487.947a1.767,1.767,0,0,0,1.277,2.466l14.419,2.751c6.689,1.277,13.511,2.579,16.324,3.117a1.254,1.254,0,0,0,1.346-.767C315.835,176.107,315.841,175.465,315.84,175.01Z" transform="translate(-282.303 -161)" fill="#f5a700"/>
        </g>
        <g id="Grupo_19" data-name="Grupo 19" transform="translate(10.753 1.381)">
          <g id="Grupo_14" data-name="Grupo 14" transform="translate(0 0.887)">
            <path id="Caminho_13" data-name="Caminho 13" d="M453.68,197.964c-.417.34-.881.462-1.035.273s.06-.618.477-.958.881-.462,1.035-.273S454.1,197.624,453.68,197.964Z" transform="translate(-452.595 -196.917)" fill="#fff"/>
          </g>
          <g id="Grupo_15" data-name="Grupo 15" transform="translate(12.257 3.43)">
            <path id="Caminho_14" data-name="Caminho 14" d="M647.766,238.125c-.508.177-.986.134-1.066-.1s.267-.561.775-.737.986-.134,1.066.1S648.275,237.948,647.766,238.125Z" transform="translate(-646.689 -237.182)" fill="#fff"/>
          </g>
          <g id="Grupo_16" data-name="Grupo 16" transform="translate(6.366 2.042)">
            <path id="Caminho_15" data-name="Caminho 15" d="M554.363,216.294c-.209.5-.561.822-.785.727s-.238-.574-.029-1.07.561-.822.785-.727S554.572,215.8,554.363,216.294Z" transform="translate(-553.4 -215.208)" fill="#fff"/>
          </g>
          <g id="Grupo_17" data-name="Grupo 17" transform="translate(3.842)">
            <path id="Caminho_16" data-name="Caminho 16" d="M514.441,183.508c.273.464.325.94.115,1.064s-.6-.152-.875-.615-.325-.94-.115-1.064S514.168,183.044,514.441,183.508Z" transform="translate(-513.437 -182.863)" fill="#fff"/>
          </g>
          <g id="Grupo_18" data-name="Grupo 18" transform="translate(9.693 1.634)">
            <path id="Caminho_17" data-name="Caminho 17" d="M607.19,209.012c.454.289.716.69.585.9s-.605.138-1.06-.151-.716-.69-.585-.9S606.735,208.723,607.19,209.012Z" transform="translate(-606.096 -208.742)" fill="#fff"/>
          </g>
        </g>
        <g id="Grupo_20" data-name="Grupo 20" transform="translate(0.641 0.591)">
          <path id="Caminho_18" data-name="Caminho 18" d="M292.459,179.143a15.923,15.923,0,0,1,14.392-8.777S298.372,173.192,292.459,179.143Z" transform="translate(-292.459 -170.366)" fill="#fabe5c"/>
        </g>
        <g id="Grupo_21" data-name="Grupo 21" transform="translate(29.39 6.025)">
          <path id="Caminho_19" data-name="Caminho 19" d="M747.724,256.416q.152.132.3.269Q747.876,256.548,747.724,256.416Z" transform="translate(-747.724 -256.416)" fill="#f5a700"/>
        </g>
        <g id="Grupo_22" data-name="Grupo 22" transform="translate(30.007 6.602)">
          <path id="Caminho_20" data-name="Caminho 20" d="M757.5,265.542q.14.14.274.285Q757.637,265.682,757.5,265.542Z" transform="translate(-757.497 -265.542)" fill="#f5a700"/>
        </g>
        <g id="Grupo_23" data-name="Grupo 23" transform="translate(28.73 5.495)">
          <path id="Caminho_21" data-name="Caminho 21" d="M737.27,248.026q.167.123.329.253Q737.437,248.15,737.27,248.026Z" transform="translate(-737.27 -248.026)" fill="#f5a700"/>
        </g>
        <g id="Grupo_24" data-name="Grupo 24" transform="translate(30.577 7.216)">
          <path id="Caminho_22" data-name="Caminho 22" d="M766.523,275.27q.136.157.266.318Q766.659,275.427,766.523,275.27Z" transform="translate(-766.523 -275.27)" fill="#f5a700"/>
        </g>
        <g id="Grupo_25" data-name="Grupo 25" transform="translate(29.065 5.754)">
          <path id="Caminho_23" data-name="Caminho 23" d="M742.576,252.121q.159.128.314.262Q742.735,252.249,742.576,252.121Z" transform="translate(-742.576 -252.121)" fill="#f5a700"/>
        </g>
        <g id="Grupo_26" data-name="Grupo 26" transform="translate(29.704 6.308)">
          <path id="Caminho_24" data-name="Caminho 24" d="M752.7,260.9q.145.135.285.276Q752.845,261.032,752.7,260.9Z" transform="translate(-752.7 -260.896)" fill="#f5a700"/>
        </g>
        <g id="Grupo_27" data-name="Grupo 27" transform="translate(30.298 6.904)">
          <path id="Caminho_25" data-name="Caminho 25" d="M762.1,270.338q.136.147.267.3Q762.241,270.485,762.1,270.338Z" transform="translate(-762.105 -270.338)" fill="#f5a700"/>
        </g>
        <g id="Grupo_28" data-name="Grupo 28" transform="translate(28.386 5.251)">
          <path id="Caminho_26" data-name="Caminho 26" d="M731.822,244.154q.173.118.342.243Q732,244.272,731.822,244.154Z" transform="translate(-731.822 -244.154)" fill="#f5a700"/>
        </g>
        <g id="Grupo_29" data-name="Grupo 29" transform="translate(29.379 6.016)">
          <path id="Caminho_27" data-name="Caminho 27" d="M747.549,256.265l.011.01Z" transform="translate(-747.549 -256.265)" fill="#e90"/>
        </g>
        <g id="Grupo_30" data-name="Grupo 30" transform="translate(28.386 5.251)">
          <path id="Caminho_28" data-name="Caminho 28" d="M731.819,244.153Z" transform="translate(-731.819 -244.153)" fill="#e90"/>
        </g>
        <g id="Grupo_31" data-name="Grupo 31" transform="translate(28.728 5.494)">
          <path id="Caminho_29" data-name="Caminho 29" d="M737.232,248l0,0Z" transform="translate(-737.232 -247.999)" fill="#e90"/>
        </g>
        <g id="Grupo_32" data-name="Grupo 32" transform="translate(29.059 5.749)">
          <path id="Caminho_30" data-name="Caminho 30" d="M742.475,252.039l.006.005Z" transform="translate(-742.475 -252.039)" fill="#e90"/>
        </g>
        <g id="Grupo_33" data-name="Grupo 33" transform="translate(30.843 7.534)">
          <path id="Caminho_31" data-name="Caminho 31" d="M770.736,280.312h0Z" transform="translate(-770.735 -280.312)" fill="#e90"/>
        </g>
        <g id="Grupo_34" data-name="Grupo 34" transform="translate(29.689 6.294)">
          <path id="Caminho_32" data-name="Caminho 32" d="M752.461,260.674l.015.014Z" transform="translate(-752.461 -260.674)" fill="#e90"/>
        </g>
        <g id="Grupo_35" data-name="Grupo 35" transform="translate(30.565 7.202)">
          <path id="Caminho_33" data-name="Caminho 33" d="M766.333,275.053l.012.014Z" transform="translate(-766.333 -275.053)" fill="#e90"/>
        </g>
        <g id="Grupo_36" data-name="Grupo 36" transform="translate(30.281 6.886)">
          <path id="Caminho_34" data-name="Caminho 34" d="M761.838,270.054l.017.018Z" transform="translate(-761.838 -270.054)" fill="#e90"/>
        </g>
        <g id="Grupo_37" data-name="Grupo 37" transform="translate(29.99 6.584)">
          <path id="Caminho_35" data-name="Caminho 35" d="M757.22,265.267l.017.017Z" transform="translate(-757.22 -265.267)" fill="#e90"/>
        </g>
        <g id="Grupo_38" data-name="Grupo 38" transform="translate(15.856 5.251)">
          <path id="Caminho_36" data-name="Caminho 36" d="M551.061,254.548c.006-.539.013-1.181.011-1.636a14.315,14.315,0,0,0-2.693-6.476h0q-.13-.161-.266-.318l-.012-.014q-.131-.151-.267-.3l-.017-.018q-.135-.145-.274-.285l-.017-.017q-.14-.14-.285-.276l-.015-.014q-.147-.137-.3-.269l-.011-.01q-.155-.134-.314-.262l-.006-.005q-.162-.13-.329-.253l0,0q-.168-.125-.342-.243h0c-3.075,4.841-8.254,7.046-12.53,8.045,6.689,1.277,13.511,2.579,16.324,3.117A1.254,1.254,0,0,0,551.061,254.548Z" transform="translate(-533.391 -244.153)" fill="#e90"/>
        </g>
      </g>
      <g id="Grupo_41" data-name="Grupo 41" transform="translate(10.674 0.402)" opacity="0.1">
        <g id="Grupo_40" data-name="Grupo 40">
          <path id="Caminho_37" data-name="Caminho 37" d="M453.62,167.516s-2.656-.542-2.238.451,7.217,4.055,12.357,4.839,6.739.761,5.647-.054-.72-.1-3.63-.938S457.548,168.1,453.62,167.516Z" transform="translate(-451.338 -167.368)"/>
        </g>
      </g>
    </g>
    <g id="Grupo_43" data-name="Grupo 43" transform="translate(282.092 176.854)">
      <path id="Caminho_38" data-name="Caminho 38" d="M359.575,412.069c-1.792.382-3.553.929-5.3,1.452a24.363,24.363,0,0,1-2.608.706c-2.594.468-9.548.224-14.137.644a10.753,10.753,0,0,0-1.635.267,72.069,72.069,0,0,0,10.333,1.153C350.49,416.358,357.911,412.877,359.575,412.069Z" transform="translate(-335.891 -412.069)" fill="#456622"/>
    </g>
  </g>
</svg>
